<svg preserveAspectRatio="none" width="100%" height="100%" overflow="visible" style="display: block;" viewBox="0 0 20 20" fill="none" xmlns="http://www.w3.org/2000/svg">
<path id="Subtract" d="M10 0C15.5228 0 20 4.47715 20 10C20 15.5228 15.5228 20 10 20C4.47715 20 0 15.5228 0 10C0 4.47715 4.47715 0 10 0ZM8 11.4004C7.69552 11.1568 7.27654 11.1119 6.92773 11.2861L5.45703 12.0215C4.85932 12.3206 4.45011 12.8992 4.36719 13.5625L4.13965 15.3877C4.13758 15.4043 4.13637 15.4209 4.13477 15.4375C4.84519 16.2035 5.70386 16.8288 6.66504 17.2705C7.13659 17.0644 7.52498 16.6625 7.68262 16.1113L7.85742 15.499C7.95074 15.1725 8.12615 14.874 8.36621 14.6338L9.60547 13.3955C9.81579 13.1848 9.79583 12.8375 9.56348 12.6514L8 11.4004ZM10 2C9.51646 2.00003 9.0429 2.04473 8.58301 2.12695C8.31288 2.49371 8.19389 2.9675 8.28906 3.44336C8.41803 4.08634 8.91243 4.59402 9.55176 4.74023L10.1631 4.88086C11.1946 5.11682 11.8644 6.11539 11.6904 7.15918L11.5156 8.20703C11.3939 8.93924 12.085 9.54497 12.7949 9.32812L14.085 8.93359C14.9254 8.67635 15.4998 7.89945 15.5 7.02051V4.51367C15.5 4.39368 15.4858 4.27522 15.4648 4.15918C14.0348 2.82072 12.1132 2.00009 10 2Z" fill="var(--fill-0, white)"/>
</svg>
